<svg xmlns="http://www.w3.org/2000/svg" xmlns:xlink="http://www.w3.org/1999/xlink" width="20" height="20" viewBox="0 0 20 20">
    <defs>
        <path id="a" d="M18 16V4c0-.55-.45-1-1-1H4c-.55 0-1 .45-1 1v12c0 .55.45 1 1 1h13c.55 0 1-.45 1-1zM8 11h1c.55 0 1 .45 1 1s-.45 1-1 1H8v1.5c0 .28-.22.5-.5.5s-.5-.22-.5-.5V13H6c-.55 0-1-.45-1-1s.45-1 1-1h1V5.5c0-.28.22-.5.5-.5s.5.22.5.5V11zm5-2h-1c-.55 0-1-.45-1-1s.45-1 1-1h1V5.5c0-.28.22-.5.5-.5s.5.22.5.5V7h1c.55 0 1 .45 1 1s-.45 1-1 1h-1v5.5c0 .28-.22.5-.5.5s-.5-.22-.5-.5V9z"/>
    </defs>
    <g fill="none" fill-rule="evenodd">
        <mask id="b" fill="#fff">
            <use xlink:href="#a"/>
        </mask>
        <use fill="#888" xlink:href="#a"/>
        <g mask="url(#b)">
            <path fill="#9EA3A8" d="M-41-41H59V59H-41z"/>
        </g>
    </g>
</svg>
