<svg xmlns="http://www.w3.org/2000/svg" xmlns:xlink="http://www.w3.org/1999/xlink" width="20" height="20" viewBox="0 0 20 20">
    <defs>
        <path id="a" d="M16.683 9.266c-1.34 1.256-3.3 1.565-4.95.928l-5.41 6.113c-.99.928-2.59.928-3.58 0-.99-.929-.99-2.429 0-3.347l6.52-5.082c-.68-1.547-.35-3.384.99-4.64 1.28-1.2 3.12-1.52 4.72-.994l-2.89 2.71 2.82 2.643 2.86-2.69c.53 1.48.18 3.178-1.08 4.359zm-12.87 6.037c.4.366 1.04.366 1.43 0 .4-.375.4-.975 0-1.34a1.05 1.05 0 0 0-1.43 0 .914.914 0 0 0 0 1.34z"/>
    </defs>
    <g fill="none" fill-rule="evenodd">
        <mask id="b" fill="#fff">
            <use xlink:href="#a"/>
        </mask>
        <use fill="#888" xlink:href="#a"/>
        <g mask="url(#b)">
            <path fill="#9EA3A8" d="M-41-40H59V60H-41z"/>
        </g>
    </g>
</svg>
